<svg width="34" height="34" viewBox="0 0 34 34" fill="none" xmlns="http://www.w3.org/2000/svg">
<g clip-path="url(#clip0_1306_584)">
<path d="M22.3438 0.851654C21.8762 0.851654 21.4755 1.25244 21.4755 1.72002V4.09134C21.4755 4.55892 21.8762 4.95971 22.3438 4.95971C22.8114 4.95971 23.2122 4.55892 23.2122 4.09134V1.72002C23.2122 1.25244 22.8114 0.851654 22.3438 0.851654Z" fill="#454545"/>
<path d="M30.5599 4.25833C30.2259 3.92435 29.6916 3.92435 29.3576 4.25833L27.6876 5.92827C27.3536 6.26226 27.3536 6.79664 27.6876 7.13063C28.0216 7.46462 28.556 7.46462 28.89 7.13063L30.5599 5.46069C30.8939 5.1267 30.8939 4.59232 30.5599 4.25833Z" fill="#454545"/>
<path d="M16.9665 5.92827L15.2966 4.25833C14.9626 3.92435 14.4282 3.92435 14.0942 4.25833C13.7603 4.59232 13.7603 5.1267 14.0942 5.46069L15.7642 7.13063C16.0982 7.46462 16.6325 7.46462 16.9665 7.13063C17.3005 6.79664 17.3005 6.26226 16.9665 5.92827Z" fill="#454545"/>
<path d="M22.9784 26.9362C22.3104 26.2682 21.4086 25.8674 20.4067 25.8674C20.3733 25.8674 20.3399 25.8674 20.3399 25.8674H10.9548C10.4872 25.8674 10.0864 26.2348 10.0864 26.7358C10.0864 27.2034 10.4538 27.6041 10.9548 27.6041H20.3399C20.3733 27.6041 20.3733 27.6041 20.4067 27.6041C20.941 27.6041 21.4086 27.8045 21.7426 28.1719C22.0766 28.5059 22.3104 29.0069 22.3104 29.5079C22.3104 30.0423 22.11 30.5098 21.7426 30.8438C21.4086 31.1778 20.9076 31.4116 20.4067 31.4116C19.8723 31.4116 19.4047 31.2112 19.0707 30.8438C18.7367 30.5098 18.5029 30.0089 18.5029 29.5079C18.5029 29.0403 18.1021 28.6395 17.6346 28.6395C17.167 28.6395 16.7662 29.0403 16.7662 29.5079C16.7662 30.5098 17.167 31.4116 17.835 32.0796C18.5029 32.7476 19.4047 33.1483 20.4067 33.1483C21.4086 33.1483 22.3104 32.7476 22.9784 32.0796C23.6464 31.4116 24.0471 30.5098 24.0471 29.5079C24.0471 28.5059 23.6464 27.6041 22.9784 26.9362Z" fill="#454545"/>
<path d="M30.5265 19.4882L28.89 17.8516C28.556 17.5177 28.0216 17.5177 27.6876 17.8516C27.554 17.9852 27.4872 18.1188 27.4538 18.2858C27.4204 17.5177 27.22 16.8163 26.9528 16.1483C27.2868 15.7141 27.5874 15.2131 27.7878 14.7122C28.0884 14.0108 28.222 13.2426 28.222 12.4744C28.222 10.8379 27.554 9.36834 26.4853 8.33298C25.4165 7.29762 23.947 6.62964 22.3438 6.62964C21.2417 6.62964 20.2063 6.93023 19.3045 7.46461C18.6699 7.86539 18.1022 8.36638 17.6346 8.96756C16.2986 8.06579 14.6955 7.53141 12.9921 7.53141C10.9548 7.53141 9.08448 8.26618 7.64833 9.50194C6.37917 10.6041 5.44401 12.0736 5.00982 13.8104C3.70727 13.9774 2.53831 14.5786 1.66994 15.4469C0.634578 16.4823 0 17.9184 0 19.4882C0 21.0579 0.634578 22.4941 1.66994 23.5294C2.7053 24.5648 4.14145 25.1994 5.7112 25.1994H20.9077C22.7112 25.1994 24.3143 24.4646 25.5167 23.2956C26.6857 22.1267 27.4204 20.4901 27.4204 18.6866V18.6532C27.4538 18.7868 27.5206 18.9204 27.6542 19.0206L29.3242 20.6905C29.6582 21.0245 30.1925 21.0245 30.5265 20.6905C30.8605 20.3566 30.8605 19.8222 30.5265 19.4882ZM24.3477 22.0933C23.4794 22.9617 22.277 23.496 20.9745 23.496H5.7446C4.64244 23.496 3.64047 23.0619 2.9057 22.3271C2.17092 21.5923 1.73674 20.5903 1.73674 19.4882C1.73674 18.386 2.17092 17.3841 2.9057 16.6493C3.64047 15.9145 4.64244 15.4803 5.7446 15.4803C5.87819 15.4803 6.04519 15.4469 6.14538 15.3801C6.34578 15.2465 6.47937 15.0461 6.51277 14.8123C6.74656 13.2426 7.54813 11.8399 8.68369 10.8713C9.81925 9.90272 11.3222 9.30154 12.9253 9.30154C14.2947 9.30154 15.5639 9.73573 16.6326 10.4705C17.4342 11.0383 18.1356 11.7731 18.6031 12.6748C18.4695 12.7416 18.336 12.775 18.2024 12.8418C17.3674 13.2092 16.6326 13.777 15.998 14.445C15.6974 14.8123 15.7308 15.3467 16.0648 15.6473C16.4322 15.9479 16.9666 15.9145 17.2672 15.5805C17.7348 15.0795 18.2692 14.6788 18.8703 14.3782C19.4715 14.111 20.1395 13.944 20.8409 13.944C22.1768 13.944 23.3458 14.4784 24.2141 15.3467C25.0825 16.2151 25.6169 17.4175 25.6169 18.72C25.7171 20.056 25.1827 21.2249 24.3477 22.0933ZM26.1847 14.0776C26.1179 14.2446 26.0511 14.4116 25.9509 14.5452C25.8173 14.3782 25.6837 14.2446 25.5501 14.111C24.3811 12.942 22.7446 12.2072 20.9411 12.2072C20.7741 12.2072 20.5737 12.2072 20.4067 12.2406C20.0393 11.4391 19.5383 10.7043 18.9371 10.1031C19.2711 9.63553 19.7053 9.26814 20.1729 8.96756C20.8075 8.56677 21.5422 8.36638 22.3104 8.36638C23.446 8.36638 24.5147 8.83396 25.2495 9.56873C26.0177 10.3369 26.4519 11.3723 26.4519 12.5078C26.4853 13.0756 26.3851 13.61 26.1847 14.0776Z" fill="#454545"/>
<path d="M33.1317 11.6395H30.7603C30.2928 11.6395 29.892 12.0403 29.892 12.5079C29.892 12.9755 30.2928 13.3762 30.7603 13.3762H33.1317C33.5992 13.3762 34 12.9755 34 12.5079C33.9666 12.0403 33.5992 11.6395 33.1317 11.6395Z" fill="#454545"/>
</g>
<defs>
<clipPath id="clip0_1306_584">
<rect width="34" height="34" fill="white"/>
</clipPath>
</defs>
</svg>
