<svg width="21" height="21" viewBox="0 0 21 21" fill="none" xmlns="http://www.w3.org/2000/svg">
<g clip-path="url(#clip0_1306_573)">
<path fill-rule="evenodd" clip-rule="evenodd" d="M10.1634 19.0752C7.78861 19.0864 5.50665 18.1538 3.81947 16.4825C2.13229 14.8113 1.17814 12.5382 1.1669 10.1634C1.15566 7.78864 2.08825 5.50669 3.75953 3.81951C5.43081 2.13233 7.70383 1.17818 10.0786 1.16693L10.0733 0.0476818C7.40167 0.0603288 4.84448 1.13374 2.96437 3.03184C1.08415 4.92984 0.0350021 7.49713 0.0476489 10.1687C0.0602956 12.8403 1.1337 15.3975 3.03181 17.2777C4.92981 19.1579 7.49704 20.2071 10.1687 20.1944L10.1634 19.0752ZM11.6917 16.8121C11.6908 16.6285 11.6538 16.4362 11.6227 16.2967C11.5876 16.1388 11.5406 15.9664 11.4893 15.796C11.3871 15.4558 11.2555 15.083 11.1325 14.783C10.5399 13.3377 9.5943 12.0742 8.38852 11.1121L20.199 11.0562L20.1898 9.09746L8.36988 9.15341C9.57097 8.179 10.508 6.90373 11.0883 5.44917C11.2085 5.14801 11.3365 4.77397 11.4355 4.43287C11.4851 4.26193 11.5305 4.08906 11.5642 3.93095C11.594 3.79108 11.6291 3.59846 11.6283 3.41493L9.6696 3.4242L9.66964 3.41191C9.66968 3.40888 9.66972 3.40687 9.66962 3.40687C9.66952 3.40687 9.66922 3.40873 9.66869 3.41257C9.66683 3.42532 9.66181 3.46025 9.64846 3.52297C9.62771 3.62033 9.59571 3.74474 9.55453 3.88672C9.47186 4.17128 9.3641 4.48503 9.26903 4.72337C8.74383 6.03975 7.85073 7.16321 6.70634 7.95432C5.56215 8.74517 4.21706 9.16934 2.84114 9.17585L2.84116 9.17958L2.85041 11.1346L2.85043 11.1383L3.07623 11.1372C4.37353 11.1743 5.63838 11.5821 6.727 12.3195C7.87883 13.0997 8.78252 14.2146 9.32016 15.526C9.41749 15.7634 9.52822 16.0761 9.61358 16.3599C9.6561 16.5014 9.68928 16.6256 9.71094 16.7227C9.72489 16.7853 9.73024 16.8202 9.73222 16.8329C9.73279 16.8368 9.7331 16.8386 9.7332 16.8386C9.7333 16.8386 9.73324 16.837 9.73318 16.834L9.73302 16.8213L11.6917 16.8121Z" fill="black"/>
</g>
<defs>
<clipPath id="clip0_1306_573">
<rect width="20.147" height="20.147" fill="white" transform="translate(20.2421 20.1467) rotate(179.729)"/>
</clipPath>
</defs>
</svg>
